<svg xmlns="http://www.w3.org/2000/svg" xmlns:xlink="http://www.w3.org/1999/xlink" viewBox="0 0 152 128"><defs><style>.a{fill:#d5b7b7;stroke:#707070;}.b{fill:#fff;}.c{clip-path:url(#a);}.d{fill:#484c4d;}</style><clipPath id="a"><circle class="a" cx="49.272" cy="49.272" r="49.272"/></clipPath></defs><g transform="translate(-259 -230)"><ellipse class="b" cx="76" cy="64" rx="76" ry="64" transform="translate(259 230)"/><g transform="translate(146.455 79.455)"><g class="c" transform="translate(139 155)"><g transform="translate(0 10.644)"><path class="d" d="M79.659,23.543a18.876,18.876,0,0,0-2.5.185A25.116,25.116,0,0,0,52.088,0C41.142,0,32.81,7.965,29.366,17.728c-1.835-.48-4.734-1.707-6.721-1.707a22.635,22.635,0,0,0-3.833,44.945v5.058A11.274,11.274,0,0,0,30.053,77.257h38.44A11.27,11.27,0,0,0,79.729,66.018V61.31a18.883,18.883,0,0,0-.07-37.767ZM68.487,73.674H30.053A7.673,7.673,0,0,1,22.4,66.018V41.693a7.671,7.671,0,0,1,7.658-7.654H59.936v-.865a2.144,2.144,0,0,1,2.138-2.14H69.2a2.144,2.144,0,0,1,2.138,2.14V34.6a7.664,7.664,0,0,1,4.8,7.089V66.018h0A7.675,7.675,0,0,1,68.487,73.674Z"/><path class="d" d="M76.259,48.893H37.825a4.088,4.088,0,0,0-4.053,4.052V77.269a4.089,4.089,0,0,0,4.053,4.053H76.259a4.09,4.09,0,0,0,4.057-4.053V52.944A4.088,4.088,0,0,0,76.259,48.893ZM73.413,78.02a2.4,2.4,0,1,1,2.4-2.4A2.406,2.406,0,0,1,73.413,78.02Zm-16.37,1.351a13.463,13.463,0,1,1,11.676-6.806A13.424,13.424,0,0,1,57.043,79.371Z" transform="translate(-7.772 -11.251)"/><path class="d" d="M60.792,57.081A10.716,10.716,0,1,0,71.53,67.817,10.742,10.742,0,0,0,60.792,57.081Zm4.279,17.368A7.894,7.894,0,1,1,68.7,67.817,7.877,7.877,0,0,1,65.071,74.449Z" transform="translate(-11.52 -13.135)"/><path class="d" d="M62.3,63.656A5.675,5.675,0,0,0,62.3,75a5.754,5.754,0,0,0,5.676-5.674A5.682,5.682,0,0,0,62.3,63.656Z" transform="translate(-13.031 -14.648)"/></g></g></g></g></svg>